<svg preserveAspectRatio="none" width="100%" height="100%" overflow="visible" style="display: block;" viewBox="0 0 30 30" fill="none" xmlns="http://www.w3.org/2000/svg">
<g id="SVG">
<path id="Vector" d="M14.4525 4.0825C14.5065 3.98451 14.5857 3.90279 14.682 3.84588C14.7783 3.78897 14.8881 3.75895 15 3.75895C15.1119 3.75895 15.2217 3.78897 15.318 3.84588C15.4143 3.90279 15.4935 3.98451 15.5475 4.0825L19.2375 11.0875C19.3255 11.2497 19.4483 11.3904 19.5971 11.4995C19.746 11.6086 19.9171 11.6834 20.0982 11.7186C20.2794 11.7537 20.4661 11.7483 20.6449 11.7027C20.8237 11.6572 20.9903 11.5726 21.1325 11.455L26.4787 6.875C26.5814 6.79153 26.7078 6.74277 26.8399 6.73575C26.9721 6.72873 27.103 6.76381 27.2139 6.83593C27.3248 6.90806 27.4099 7.01351 27.4571 7.13711C27.5042 7.26072 27.5109 7.39609 27.4762 7.52375L23.9337 20.3313C23.8614 20.5933 23.7057 20.8247 23.49 20.9903C23.2744 21.1558 23.0106 21.2466 22.7387 21.2488H7.2625C6.99042 21.2469 6.72639 21.1562 6.51049 20.9906C6.29459 20.8251 6.13862 20.5935 6.06625 20.3313L2.525 7.525C2.49031 7.39734 2.49703 7.26197 2.54418 7.13836C2.59133 7.01476 2.67648 6.90931 2.78738 6.83718C2.89827 6.76506 3.0292 6.72998 3.1613 6.737C3.2934 6.74402 3.41987 6.79278 3.5225 6.87625L8.8675 11.4563C9.00975 11.5738 9.17626 11.6584 9.35508 11.704C9.5339 11.7495 9.72059 11.755 9.90175 11.7198C10.0829 11.6847 10.254 11.6099 10.4029 11.5008C10.5517 11.3917 10.6745 11.251 10.7625 11.0888L14.4525 4.0825Z" stroke="var(--stroke-0, white)" stroke-width="2" stroke-linecap="round" stroke-linejoin="round"/>
<path id="Vector_2" d="M6.25 26.25H23.75" stroke="var(--stroke-0, white)" stroke-width="2" stroke-linecap="round" stroke-linejoin="round"/>
</g>
</svg>
