<svg preserveAspectRatio="none" width="100%" height="100%" overflow="visible" style="display: block;" viewBox="0 0 30 30" fill="none" xmlns="http://www.w3.org/2000/svg">
<g id="SVG">
<path id="Vector" d="M5 17.5C4.76346 17.5008 4.53154 17.4345 4.33119 17.3087C4.13085 17.183 3.97029 17.0029 3.86819 16.7896C3.76608 16.5762 3.72662 16.3382 3.75437 16.1033C3.78213 15.8684 3.87598 15.6462 4.025 15.4625L16.4 2.7125C16.4928 2.60535 16.6193 2.53295 16.7587 2.50717C16.8981 2.48139 17.0422 2.50377 17.1672 2.57063C17.2922 2.63749 17.3907 2.74487 17.4467 2.87514C17.5026 3.0054 17.5126 3.15081 17.475 3.2875L15.075 10.8125C15.0042 11.0019 14.9805 11.2056 15.0057 11.4063C15.031 11.6069 15.1046 11.7984 15.2201 11.9643C15.3357 12.1302 15.4897 12.2656 15.6691 12.3589C15.8485 12.4523 16.0478 12.5007 16.25 12.5H25C25.2365 12.4992 25.4685 12.5655 25.6688 12.6913C25.8692 12.817 26.0297 12.9971 26.1318 13.2104C26.2339 13.4238 26.2734 13.6618 26.2456 13.8967C26.2179 14.1316 26.124 14.3538 25.975 14.5375L13.6 27.2875C13.5072 27.3946 13.3807 27.4671 13.2413 27.4928C13.1019 27.5186 12.9578 27.4962 12.8328 27.4294C12.7078 27.3625 12.6093 27.2551 12.5533 27.1249C12.4974 26.9946 12.4874 26.8492 12.525 26.7125L14.925 19.1875C14.9958 18.9981 15.0195 18.7943 14.9943 18.5937C14.969 18.3931 14.8954 18.2016 14.7799 18.0357C14.6643 17.8698 14.5103 17.7344 14.3309 17.641C14.1515 17.5477 13.9522 17.4993 13.75 17.5H5Z" stroke="var(--stroke-0, white)" stroke-width="2" stroke-linecap="round" stroke-linejoin="round"/>
</g>
</svg>
