<svg preserveAspectRatio="none" width="100%" height="100%" overflow="visible" style="display: block;" viewBox="0 0 17.6429 22.4985" fill="none" xmlns="http://www.w3.org/2000/svg">
<path id="Vector" d="M3.49142 6.88722C3.38455 8.02722 3.30955 10.0447 3.98267 10.9035C3.98267 10.9035 3.6658 8.68722 6.50642 5.9066C7.65017 4.78722 7.91455 3.26472 7.51517 2.12285C7.2883 1.47597 6.87392 0.941597 6.51392 0.568472C6.30392 0.349097 6.46517 -0.0127776 6.7708 0.000347356C8.61955 0.0828474 11.6158 0.596597 12.8889 3.7916C13.4477 5.1941 13.4889 6.64347 13.2227 8.11722C13.0539 9.05847 12.4539 11.151 13.8227 11.4078C14.7995 11.5916 15.272 10.8153 15.4839 10.2566C15.572 10.0241 15.8777 9.96597 16.0427 10.1516C17.6927 12.0285 17.8333 14.2391 17.492 16.1422C16.832 19.821 13.1064 22.4985 9.40517 22.4985C4.78142 22.4985 1.1008 19.8528 0.146422 15.0641C-0.237953 13.131 -0.0429529 9.30597 2.9383 6.60597C3.15955 6.40347 3.52142 6.58347 3.49142 6.88722Z" fill="url(#paint0_radial_0_116)"/>
<defs>
<radialGradient id="paint0_radial_0_116" cx="0" cy="0" r="1" gradientTransform="matrix(-13.2351 -0.0574402 -0.094366 21.7161 8.48938 22.5568)" gradientUnits="userSpaceOnUse">
<stop offset="0.314" stop-color="#FF9800"/>
<stop offset="0.662" stop-color="#FF6D00"/>
<stop offset="0.972" stop-color="#F44336"/>
</radialGradient>
</defs>
</svg>
