<svg preserveAspectRatio="none" width="100%" height="100%" overflow="visible" style="display: block;" viewBox="0 0 16 16" fill="none" xmlns="http://www.w3.org/2000/svg">
<g id="chevron right">
<path id="Vector" d="M6.65522 9.41306L9.71522 12.4731C9.84013 12.5972 10.0091 12.6669 10.1852 12.6669C10.3613 12.6669 10.5303 12.5972 10.6552 12.4731C10.7177 12.4111 10.7673 12.3373 10.8011 12.2561C10.835 12.1749 10.8524 12.0877 10.8524 11.9997C10.8524 11.9117 10.835 11.8246 10.8011 11.7433C10.7673 11.6621 10.7177 11.5884 10.6552 11.5264L7.58855 8.47306C7.52607 8.41108 7.47647 8.33735 7.44263 8.25611C7.40878 8.17487 7.39135 8.08773 7.39135 7.99973C7.39135 7.91172 7.40878 7.82458 7.44263 7.74334C7.47647 7.6621 7.52607 7.58837 7.58855 7.52639L10.6552 4.47306C10.7808 4.34841 10.8516 4.17899 10.8523 4.00208C10.8529 3.82517 10.7832 3.65526 10.6586 3.52972C10.5339 3.40419 10.3645 3.33331 10.1876 3.33269C10.0107 3.33206 9.84076 3.40174 9.71522 3.52639L6.65522 6.58639C6.28069 6.96139 6.07031 7.46972 6.07031 7.99973C6.07031 8.52973 6.28069 9.03806 6.65522 9.41306Z" fill="var(--fill-0, white)"/>
</g>
</svg>
