<svg preserveAspectRatio="none" width="100%" height="100%" overflow="visible" style="display: block;" viewBox="0 0 71.0206 15" fill="none" xmlns="http://www.w3.org/2000/svg">
<g id="Group">
<path id="Vector" d="M65.4124 4.35909L67.5064 9.41626H67.5311L69.5757 4.35909H71.0206L66.6125 14.5102H65.2412L66.8821 10.9592L63.9798 4.35909H65.4124ZM60.6615 4.12644C61.641 4.12644 62.4122 4.38358 62.9756 4.91012C63.5391 5.43666 63.8205 6.14687 63.8205 7.06524V11.4122H62.5591V10.4326H62.4982C61.9472 11.2408 61.2245 11.6448 60.3182 11.6448C59.547 11.6448 58.898 11.4122 58.3716 10.9591C57.8448 10.4938 57.5876 9.91831 57.5876 9.23259C57.5876 8.51016 57.8572 7.92238 58.4206 7.49379C58.9717 7.06524 59.7063 6.84481 60.6244 6.84481C61.408 6.84481 62.057 6.99178 62.5715 7.2734V6.96725C62.5715 6.50195 62.3879 6.12238 62.0204 5.79174C61.6533 5.47336 61.2245 5.31418 60.7347 5.31418C60.0001 5.31418 59.4124 5.62033 58.9836 6.24482L57.8206 5.51012C58.4572 4.59174 59.4124 4.12644 60.6615 4.12644ZM53.9754 1.10196C54.8693 1.10196 55.6286 1.39584 56.2529 1.99585C56.8896 2.59585 57.1958 3.31828 57.1958 4.1632C57.1958 5.0326 56.8772 5.7673 56.2529 6.34281C55.6405 6.93059 54.8817 7.22447 53.9754 7.22447H51.7959V11.4H50.4731V1.10196H53.9754ZM60.8327 7.88562C60.294 7.88562 59.8532 8.02032 59.4857 8.27746C59.1305 8.54686 58.947 8.86524 58.947 9.24485C58.947 9.58772 59.0939 9.88156 59.3877 10.102C59.6816 10.3346 60.0244 10.4449 60.4162 10.4449C60.9672 10.4449 61.4693 10.2367 61.9101 9.83259C62.3509 9.41626 62.5591 8.9387 62.5591 8.37545C62.1431 8.04481 61.5673 7.88562 60.8327 7.88562ZM54.012 2.38769H51.7959V5.97546H54.012C54.5388 5.97546 54.9796 5.80405 55.3224 5.44892C55.6776 5.09384 55.8488 4.67751 55.8488 4.18768C55.8488 3.71016 55.6776 3.2938 55.3224 2.93871C54.9796 2.57136 54.5388 2.38769 54.012 2.38769Z" fill="var(--fill-0, black)"/>
<path id="Vector_2" d="M31.7871 4.13869C32.6809 4.13869 33.3913 4.53053 33.7588 4.97134H33.8197V4.35912H35.3873V11.0939C35.3873 13.8612 33.7588 15 31.8241 15C30.0116 15 28.9218 13.7755 28.5053 12.7837L29.9384 12.1836C30.1952 12.7959 30.8199 13.5184 31.8241 13.5184C33.0608 13.5184 33.8197 12.7469 33.8197 11.3143V10.7755H33.7588C33.3913 11.2286 32.6809 11.6326 31.7871 11.6326C29.9137 11.6326 28.1996 10.004 28.1996 7.89792C28.1996 5.77955 29.9137 4.13869 31.7871 4.13869ZM42.5631 4.15096C44.5102 4.15096 45.453 5.69386 45.7711 6.53873L45.9428 6.96732L40.9346 9.03672C41.3141 9.78369 41.9141 10.1755 42.7467 10.1755C43.5797 10.151 44.1674 9.74693 44.5958 9.12245L45.8691 9.97958C45.453 10.5918 44.4612 11.6449 42.7467 11.6449C40.6161 11.6449 39.0365 10.0041 39.0365 7.89796C39.0365 5.66933 40.6408 4.15096 42.5631 4.15096ZM5.90208 0C7.67759 0 8.93883 0.697965 9.88169 1.60409L8.75515 2.73062C8.06943 2.09392 7.15105 1.59187 5.88982 1.59187C3.55102 1.59187 1.71427 3.47759 1.71427 5.81639C1.71427 8.15514 3.5388 10.0409 5.88982 10.0409C7.40819 10.0409 8.27759 9.42865 8.82862 8.87762C9.28169 8.42454 9.57558 7.77557 9.69801 6.88168H5.85311V5.28985H11.2409C11.3021 5.57147 11.3266 5.91434 11.3266 6.28169C11.3266 7.46946 10.996 8.95108 9.95515 10.0042C8.92656 11.0695 7.62862 11.6327 5.90208 11.6327C2.69388 11.6327 0 9.02454 0 5.81639C0 2.60819 2.69388 0 5.90208 0ZM15.6373 4.13869C17.7068 4.13869 19.3966 5.71831 19.3966 7.88565C19.3966 10.0408 17.7068 11.6326 15.6373 11.6326C13.5679 11.6326 11.8781 10.0408 11.8781 7.88565C11.8781 5.71831 13.5679 4.13869 15.6373 4.13869ZM23.8166 4.13869C25.8859 4.13869 27.5757 5.71831 27.5757 7.88565C27.5757 10.0408 25.8859 11.6326 23.8166 11.6326C21.7469 11.6326 20.0571 10.0408 20.0571 7.88565C20.0571 5.71831 21.7469 4.13869 23.8166 4.13869ZM38.2163 0.391877V11.4001H36.5755V0.391877H38.2163ZM15.6496 5.62036C14.5231 5.62036 13.5435 6.53873 13.5435 7.88565C13.5435 9.22035 14.5231 10.151 15.6496 10.151C16.7761 10.151 17.7558 9.22035 17.7558 7.88565C17.7558 6.53873 16.7761 5.62036 15.6496 5.62036ZM23.8166 5.62036C22.6898 5.62036 21.7103 6.53873 21.7103 7.88565C21.7103 9.22035 22.6898 10.151 23.8166 10.151C24.943 10.151 25.9225 9.22035 25.9225 7.88565C25.9225 6.53873 24.943 5.62036 23.8166 5.62036ZM31.9463 5.60809C30.8076 5.60809 29.8647 6.57544 29.8647 7.89792C29.8647 9.20813 30.8199 10.151 31.9463 10.151C33.0608 10.151 33.9424 9.20813 33.9424 7.89792C33.9424 6.57544 33.0608 5.60809 31.9463 5.60809ZM42.6121 5.58365C41.7795 5.58365 40.6161 6.33057 40.665 7.77548L44.0081 6.37955C43.8245 5.91425 43.2735 5.58365 42.6121 5.58365Z" fill="var(--fill-0, black)"/>
</g>
</svg>
