<svg preserveAspectRatio="none" width="100%" height="100%" overflow="visible" style="display: block;" viewBox="0 0 12.7128 14.9995" fill="none" xmlns="http://www.w3.org/2000/svg">
<g id="symbol">
<path id="Vector" d="M3.61161 14.4914L3.87157 12.8401L3.2925 12.8267H0.527401L2.449 0.642246C2.45497 0.605463 2.47435 0.571166 2.50269 0.54681C2.53102 0.522454 2.5673 0.509033 2.60508 0.509033H7.26743C8.81525 0.509033 9.88341 0.831129 10.4411 1.46687C10.7026 1.76511 10.8691 2.07676 10.9496 2.41974C11.0341 2.77961 11.0356 3.20957 10.9531 3.73397L10.9471 3.77224V4.10825L11.2086 4.25638C11.4287 4.37319 11.6037 4.5069 11.7379 4.65999C11.9616 4.91498 12.1062 5.23907 12.1674 5.6233C12.2305 6.01846 12.2096 6.48868 12.1062 7.02103C11.9869 7.63341 11.7941 8.16676 11.5336 8.60318C11.294 9.0053 10.9889 9.33883 10.6265 9.5973C10.2806 9.84285 9.8695 10.0292 9.40475 10.1485C8.95442 10.2658 8.44097 10.325 7.87781 10.325H7.51496C7.2555 10.325 7.00349 10.4184 6.80567 10.586C6.60734 10.7569 6.47612 10.9906 6.43586 11.2461L6.40852 11.3947L5.94925 14.305L5.92837 14.4118C5.9229 14.4456 5.91346 14.4625 5.89954 14.474C5.88712 14.4844 5.86922 14.4914 5.85182 14.4914H3.61161Z" fill="var(--fill-0, #253B80)"/>
<path id="Vector_2" d="M11.4561 3.81061C11.4422 3.89958 11.4263 3.99054 11.4084 4.08399C10.7935 7.24083 8.68999 8.33138 6.00343 8.33138H4.63554C4.30699 8.33138 4.03013 8.56997 3.97893 8.89405L3.27859 13.3358L3.08026 14.5948C3.04696 14.8076 3.21099 14.9995 3.42571 14.9995H5.85182C6.13912 14.9995 6.38317 14.7907 6.4284 14.5074L6.45226 14.3841L6.90905 11.4852L6.93838 11.3262C6.98311 11.0419 7.22766 10.8331 7.51496 10.8331H7.87781C10.2284 10.8331 12.0685 9.87873 12.6063 7.11706C12.8309 5.96338 12.7146 5.00007 12.1201 4.32258C11.9402 4.11829 11.717 3.94879 11.4561 3.81061Z" fill="var(--fill-0, #179BD7)"/>
<path id="Vector_3" d="M10.8128 3.55486C10.7189 3.52752 10.6219 3.50267 10.5225 3.4803C10.4226 3.45843 10.3202 3.43905 10.2149 3.42215C9.84605 3.3625 9.44195 3.33417 9.00901 3.33417H5.35469C5.26472 3.33417 5.17923 3.35455 5.10268 3.39133C4.93418 3.47235 4.80892 3.63191 4.7786 3.82725L4.00121 8.75114L3.97885 8.89479C4.03004 8.57071 4.3069 8.33212 4.63545 8.33212H6.00334C8.68991 8.33212 10.7934 7.24107 11.4083 4.08473C11.4267 3.99128 11.4421 3.90032 11.456 3.81135C11.3004 3.72883 11.1319 3.65825 10.9505 3.59811C10.9058 3.5832 10.8595 3.56878 10.8128 3.55486Z" fill="var(--fill-0, #222D65)"/>
<path id="Vector_4" d="M4.77865 3.82688C4.80897 3.63153 4.93423 3.47198 5.10273 3.39145C5.17977 3.35467 5.26477 3.33429 5.35474 3.33429H9.00906C9.442 3.33429 9.8461 3.36262 10.2149 3.42227C10.3203 3.43917 10.4227 3.45856 10.5226 3.48043C10.622 3.50279 10.7189 3.52765 10.8129 3.55499C10.8596 3.5689 10.9058 3.58332 10.951 3.59773C11.1325 3.65788 11.301 3.72896 11.4565 3.81097C11.6395 2.64437 11.4551 1.85006 10.8243 1.13082C10.1289 0.338996 8.87386 0 7.26789 0H2.60554C2.27749 0 1.99765 0.23859 1.94695 0.563171L0.00496497 12.8729C-0.033308 13.1165 0.154578 13.3362 0.400121 13.3362H3.27855L4.00126 8.75077L4.77865 3.82688Z" fill="var(--fill-0, #253B80)"/>
</g>
</svg>
