<svg preserveAspectRatio="none" width="100%" height="100%" overflow="visible" style="display: block;" viewBox="0 0 24.3591 11.6454" fill="none" xmlns="http://www.w3.org/2000/svg">
<g id="pay">
<path id="Vector" d="M5.2445 2.00272e-05H1.84516C1.61254 2.00272e-05 1.41471 0.169021 1.37842 0.398663L0.00357819 9.11563C-0.0237597 9.28761 0.10945 9.44269 0.283915 9.44269H1.90679C2.13941 9.44269 2.33724 9.27369 2.37353 9.04355L2.74433 6.69245C2.78011 6.46231 2.97844 6.29331 3.21056 6.29331H4.28668C6.5259 6.29331 7.81824 5.20972 8.15574 3.06242C8.30783 2.12297 8.1622 1.38483 7.72231 0.867889C7.23917 0.300245 6.38225 2.00272e-05 5.2445 2.00272e-05ZM5.63667 3.1837C5.45078 4.40349 4.5188 4.40349 3.61765 4.40349H3.10469L3.46456 2.12545C3.48593 1.98777 3.60522 1.88637 3.7444 1.88637H3.9795C4.59336 1.88637 5.17243 1.88637 5.47165 2.2363C5.65009 2.44506 5.70477 2.75523 5.63667 3.1837Z" fill="var(--fill-0, #253B80)"/>
<path id="Vector_2" d="M15.4058 3.14443H13.778C13.6393 3.14443 13.5195 3.24583 13.4981 3.38351L13.4261 3.83882L13.3122 3.6738C12.9598 3.16232 12.174 2.99133 11.3896 2.99133C9.59081 2.99133 8.05442 4.35378 7.7552 6.26498C7.59962 7.21835 7.82081 8.12996 8.3616 8.7657C8.85766 9.35024 9.56745 9.5938 10.4119 9.5938C11.8613 9.5938 12.6651 8.66181 12.6651 8.66181L12.5925 9.11414C12.5652 9.28712 12.6984 9.4422 12.8719 9.4422H14.3382C14.5713 9.4422 14.7681 9.2732 14.8049 9.04306L15.6847 3.47149C15.7125 3.30001 15.5798 3.14443 15.4058 3.14443ZM13.1368 6.3127C12.9797 7.2427 12.2416 7.86701 11.3002 7.86701C10.8275 7.86701 10.4497 7.71541 10.2072 7.42811C9.96658 7.14279 9.87512 6.73669 9.95167 6.28437C10.0983 5.36232 10.8489 4.71763 11.7759 4.71763C12.2381 4.71763 12.6139 4.87122 12.8614 5.16101C13.1094 5.45378 13.2079 5.86236 13.1368 6.3127Z" fill="var(--fill-0, #253B80)"/>
<path id="Vector_3" d="M24.0754 3.14404H22.4396C22.2835 3.14404 22.1369 3.22158 22.0484 3.35132L19.7923 6.67467L18.836 3.48105C18.7758 3.28123 18.5914 3.14404 18.3827 3.14404H16.7752C16.5799 3.14404 16.4442 3.33491 16.5063 3.51883L18.3081 8.80657L16.6142 11.1979C16.4809 11.3863 16.6152 11.6453 16.8453 11.6453H18.4791C18.6342 11.6453 18.7793 11.5697 18.8673 11.4425L24.308 3.58891C24.4383 3.40102 24.3046 3.14404 24.0754 3.14404Z" fill="var(--fill-0, #253B80)"/>
</g>
</svg>
