<svg preserveAspectRatio="none" width="100%" height="100%" overflow="visible" style="display: block;" viewBox="0 0 60.55 30" fill="none" xmlns="http://www.w3.org/2000/svg">
<g id="Overlay+Border">
<rect x="0.375" y="0.375" width="59.8" height="29.25" rx="9.625" fill="var(--fill-0, white)"/>
<rect x="0.375" y="0.375" width="59.8" height="29.25" rx="9.625" stroke="var(--stroke-0, #212430)" stroke-width="0.75"/>
<g id="Union">
<path d="M12.6606 9.27163L13.4503 11.1902H11.8754L12.6606 9.27163Z" fill="var(--fill-0, #006FCF)"/>
<path d="M30.8475 10.4263C30.6889 10.5222 30.5014 10.5254 30.2767 10.5254H28.8751V9.45646H30.2958C30.4969 9.45646 30.7067 9.46546 30.843 9.54327C30.9926 9.61338 31.0852 9.7626 31.0852 9.96872C31.0852 10.1791 30.9972 10.3483 30.8475 10.4263Z" fill="var(--fill-0, #006FCF)"/>
<path d="M40.0482 9.27163L40.8467 11.1902H39.2542L40.0482 9.27163Z" fill="var(--fill-0, #006FCF)"/>
<path fill-rule="evenodd" clip-rule="evenodd" d="M9.74997 14.2121H11.7215L12.166 13.1431H13.1611L13.6045 14.2121H17.4833V13.3948L17.8295 14.2156H19.8431L20.1893 13.3827V14.2121H29.8289L29.8244 12.4574H30.0109C30.1415 12.4619 30.1796 12.474 30.1796 12.6889V14.2121H35.1653V13.8036C35.5674 14.0184 36.1929 14.2121 37.0159 14.2121H39.1134L39.5622 13.1431H40.5574L40.9964 14.2121H45.0382V13.1967L45.6503 14.2121H48.8892V7.5H45.6838V8.29271L45.2349 7.5H41.9458V8.29271L41.5336 7.5H37.0908C36.3471 7.5 35.6933 7.6035 35.1653 7.89193V7.5H32.0993V7.89193C31.7633 7.59464 31.3054 7.5 30.7962 7.5H19.5951L18.8436 9.23362L18.0718 7.5H14.5437V8.29271L14.1561 7.5H11.1473L9.74997 10.6913V14.2121ZM26.9218 13.2668H23.0674V8.45425H26.9218V9.45642H24.2213V10.3239H26.857V11.3104H24.2213V12.2715H26.9218V13.2668ZM21.0247 13.2668H22.2074V8.45426H20.2864L18.8993 11.719L17.3894 8.45426H15.5062V13.0108L13.5439 8.45426H11.8297L9.76351 13.2668H11.0166L11.4645 12.1934H13.8668L14.3102 13.2668H16.6569V9.49431L18.3343 13.2668H19.3473L21.0204 9.49765L21.0247 13.2668ZM32.3563 9.75037C32.3563 10.5177 31.8426 10.9141 31.5433 11.0331C31.7957 11.1289 32.0114 11.2982 32.114 11.4384C32.2769 11.6778 32.305 11.8916 32.305 12.3214V13.2668H31.1413L31.1369 12.6599C31.1369 12.6306 31.1372 12.5999 31.1375 12.5683C31.1401 12.2878 31.1434 11.9304 30.9548 11.7223C30.7862 11.5531 30.5292 11.5164 30.1138 11.5164H28.8752V13.2668H27.7215V8.45426H30.3753C30.965 8.45426 31.3994 8.46979 31.7724 8.68477C32.1374 8.89975 32.3563 9.21358 32.3563 9.75037ZM34.2027 13.2668H33.0254V8.45425H34.2027V13.2668ZM47.8607 13.2668H46.2257L44.0387 9.65471V13.2668H41.689L41.2399 12.1934H38.8431L38.4075 13.2668H37.0574C36.4966 13.2668 35.7865 13.1431 35.3844 12.7345C34.9789 12.3259 34.7679 11.7724 34.7679 10.8973C34.7679 10.1835 34.894 9.53104 35.3899 9.01544C35.7629 8.63135 36.3471 8.45426 37.1422 8.45426H38.2592V9.48546H37.1656C36.7445 9.48546 36.5068 9.54787 36.2778 9.77055C36.0811 9.97319 35.9461 10.3563 35.9461 10.8607C35.9461 11.3763 36.0489 11.748 36.2633 11.9909C36.441 12.1813 36.7638 12.2391 37.0675 12.2391H37.5856L39.2118 8.4544H40.9406L42.894 13.0064V8.4544H44.6508L46.6789 11.8061V8.4544H47.8607V13.2668Z" fill="var(--fill-0, #006FCF)"/>
<path d="M35.2166 18.8143C35.4412 18.8143 35.632 18.8065 35.7864 18.7152C35.9359 18.625 36.0253 18.4591 36.0253 18.2531C36.0253 18.0472 35.9359 17.8981 35.7864 17.8201C35.6467 17.7375 35.4412 17.7332 35.2357 17.7332H33.815V18.8143H35.2166Z" fill="var(--fill-0, #006FCF)"/>
<path d="M25.7445 19.1527L27.516 21.1135V17.2542L25.7445 19.1527Z" fill="var(--fill-0, #006FCF)"/>
<path d="M20.1044 20.5481H22.9412L24.2591 19.1358L22.9971 17.733H20.1044V18.6082H22.6375V19.5903H20.1044V20.5481Z" fill="var(--fill-0, #006FCF)"/>
<path d="M28.6651 18.959H30.1562C30.5995 18.959 30.8753 18.7397 30.8753 18.3234C30.8753 17.9024 30.5861 17.7332 30.1696 17.7332H28.6651V18.959Z" fill="var(--fill-0, #006FCF)"/>
<path fill-rule="evenodd" clip-rule="evenodd" d="M50.8 20.9355C50.5197 21.3441 49.9736 21.5513 49.2343 21.5513H47.0061V20.519H49.2253C49.4454 20.519 49.5994 20.4901 49.6922 20.3999C49.7726 20.3254 49.8286 20.2173 49.8286 20.0859C49.8286 19.9457 49.7725 19.8343 49.6877 19.7676C49.604 19.6941 49.4821 19.6607 49.2812 19.6607C49.2103 19.6583 49.1383 19.6564 49.0656 19.6544C48.0268 19.6263 46.8462 19.5945 46.8462 18.1708C46.8462 17.4726 47.2909 16.7377 48.5016 16.7377H50.7999V15.7799H48.6646C48.0202 15.7799 47.5521 15.9338 47.2206 16.173V15.7799H44.0622C43.5571 15.7799 42.9642 15.9048 42.6838 16.173V15.7799H37.0437V16.173C36.5949 15.8502 35.8375 15.7799 35.4879 15.7799H31.7676V16.173C31.4125 15.8302 30.6228 15.7799 30.1415 15.7799H25.9779L25.0251 16.8079L24.1328 15.7799H17.9132V22.4967H24.0157L24.9974 21.4524L25.9223 22.4967L29.6839 22.5V20.92H30.0537C30.5528 20.9277 31.1414 20.9076 31.6608 20.6838V22.4965H34.7634V20.7459H34.9131C35.1041 20.7459 35.1229 20.7538 35.1229 20.9441V22.4964H44.5481C45.1465 22.4964 45.772 22.3437 46.1184 22.0666V22.4964H49.1081C49.7302 22.4964 50.3377 22.4094 50.8 22.1868V20.9355ZM46.1976 19.0124C46.4223 19.2442 46.5427 19.5369 46.5427 20.0323C46.5427 21.0679 45.8937 21.5512 44.7301 21.5512H42.4829V20.519H44.7211C44.94 20.519 45.0952 20.4901 45.1924 20.3998C45.2718 20.3254 45.3287 20.2172 45.3287 20.0859C45.3287 19.9456 45.2671 19.8343 45.1879 19.7675C45.0997 19.6941 44.978 19.6607 44.777 19.6607C44.7064 19.6583 44.6346 19.6564 44.562 19.6544C43.5269 19.6263 42.3468 19.5943 42.3468 18.1708C42.3468 17.4726 42.7867 16.7377 43.9963 16.7377H46.3094V17.7622H44.1929C43.9831 17.7622 43.8467 17.77 43.7306 17.8491C43.6043 17.9271 43.5574 18.0428 43.5574 18.1955C43.5574 18.3771 43.6647 18.5006 43.8098 18.554C43.9316 18.5963 44.0623 18.6086 44.2589 18.6086L44.88 18.6253C45.5063 18.6405 45.9363 18.7485 46.1976 19.0124ZM36.4832 19.3142C36.74 19.4087 36.95 19.5781 37.0484 19.7183C37.2113 19.9533 37.2349 20.1727 37.2395 20.597V21.5512H36.0812V20.949C36.0812 20.9201 36.0815 20.8898 36.0818 20.8584C36.0844 20.5758 36.0877 20.2083 35.8947 20.0068C35.7261 19.8343 35.4691 19.7931 35.0482 19.7931H33.8151V21.5512H32.6558V16.7375H35.3196C35.9037 16.7375 36.3291 16.7632 36.7078 16.9647C37.072 17.184 37.301 17.4845 37.301 18.0336C37.3008 18.802 36.7869 19.194 36.4832 19.3142ZM37.9407 16.7375H41.7916V17.733H39.0898V18.6082H41.7256V19.5903H39.0898V20.5481L41.7916 20.5524V21.5512H37.9407V16.7375ZM32.114 18.3234C32.114 19.6606 31.1133 19.9367 30.1048 19.9367H28.6651V21.5512H26.4225L25.0018 19.9577L23.5253 21.5512H18.9551V16.7375H23.5957L25.0152 18.3154L26.4828 16.7375H30.1696C31.0852 16.7375 32.114 16.9902 32.114 18.3234Z" fill="var(--fill-0, #006FCF)"/>
<path d="M48.6972 17.7619H50.8V19.1316C50.7981 19.1292 50.7963 19.1268 50.7944 19.1244L50.7884 19.1165L50.7853 19.1125L50.7852 19.1123C50.7586 19.0776 50.7324 19.0434 50.693 19.0124C50.4362 18.7487 50.015 18.6405 49.3839 18.625L48.7586 18.6083C48.5664 18.6083 48.4357 18.596 48.314 18.5537C48.1644 18.5003 48.0617 18.3768 48.0617 18.1952C48.0617 18.0425 48.1085 17.9268 48.2303 17.8488C48.3477 17.7697 48.4872 17.7619 48.6972 17.7619Z" fill="var(--fill-0, #006FCF)"/>
</g>
</g>
</svg>
