<svg preserveAspectRatio="none" width="100%" height="100%" overflow="visible" style="display: block;" viewBox="0 0 19.4573 9.59453" fill="none" xmlns="http://www.w3.org/2000/svg">
<g id="pal">
<path id="Vector" d="M5.24449 0.000796505H1.84466C1.61253 0.000796505 1.4147 0.169797 1.37842 0.39944L0.00357405 9.1164C-0.0237638 9.28839 0.109448 9.44347 0.282919 9.44347H2.02757C2.18961 9.44347 2.32829 9.32517 2.35364 9.16412L2.74382 6.69323C2.77961 6.46309 2.97794 6.29409 3.21006 6.29409H4.28568C6.5254 6.29409 7.81723 5.2105 8.15523 3.06319C8.30782 2.12375 8.16119 1.38561 7.7213 0.868666C7.23866 0.301022 6.38224 0.000796505 5.24449 0.000796505ZM5.63667 3.18447C5.45126 4.40426 4.51929 4.40426 3.61764 4.40426H3.10518L3.46554 2.12623C3.48692 1.98854 3.60521 1.88714 3.74488 1.88714H3.97999C4.59335 1.88714 5.17291 1.88714 5.47214 2.23708C5.65058 2.44584 5.70476 2.75601 5.63667 3.18447Z" fill="var(--fill-0, #179BD7)"/>
<path id="Vector_2" d="M15.4052 3.14516H13.7783C13.6387 3.14516 13.5199 3.24656 13.499 3.38425L13.4269 3.83956L13.3126 3.67453C12.9602 3.16305 12.1748 2.99207 11.3905 2.99207C9.59165 2.99207 8.05576 4.35451 7.75653 6.26571C7.60145 7.21908 7.82165 8.13069 8.36244 8.76643C8.85949 9.35098 9.56829 9.59453 10.4128 9.59453C11.8622 9.59453 12.6659 8.66254 12.6659 8.66254L12.5934 9.11487C12.566 9.28785 12.6992 9.44293 12.8737 9.44293H14.3395C14.5716 9.44293 14.7694 9.27393 14.8057 9.04379L15.686 3.47223C15.7129 3.30074 15.5796 3.14516 15.4052 3.14516ZM13.1361 6.31343C12.9801 7.24343 12.2409 7.86774 11.2995 7.86774C10.8278 7.86774 10.4491 7.71614 10.2065 7.42884C9.96593 7.14352 9.87547 6.73742 9.95102 6.2851C10.0986 5.36305 10.8482 4.71836 11.7752 4.71836C12.2375 4.71836 12.6132 4.87195 12.8608 5.16174C13.1098 5.45451 13.2082 5.86309 13.1361 6.31343Z" fill="var(--fill-0, #179BD7)"/>
<path id="Vector_3" d="M17.3244 0.239706L15.9292 9.11623C15.9018 9.28821 16.0351 9.44329 16.2085 9.44329H17.6112C17.8443 9.44329 18.0421 9.27429 18.0779 9.04415L19.4538 0.327685C19.4811 0.155702 19.3479 0.00012207 19.1744 0.00012207H17.6037C17.4651 0.000619132 17.3458 0.10202 17.3244 0.239706Z" fill="var(--fill-0, #179BD7)"/>
</g>
</svg>
