<svg preserveAspectRatio="none" width="100%" height="100%" overflow="visible" style="display: block;" viewBox="0 0 21.6 16.802" fill="none" xmlns="http://www.w3.org/2000/svg">
<g id="Group 8">
<path id="Text" d="M3.92934 16.7066V15.5942C3.93586 15.5006 3.92236 15.4067 3.88974 15.3188C3.85712 15.2309 3.80613 15.1509 3.74017 15.0842C3.6742 15.0176 3.59478 14.9657 3.5072 14.9322C3.41962 14.8986 3.32589 14.8842 3.23227 14.8897C3.10974 14.8817 2.98731 14.9067 2.87775 14.9622C2.76819 15.0176 2.6755 15.1014 2.60935 15.2048C2.54906 15.1045 2.46282 15.0223 2.35972 14.9668C2.25662 14.9113 2.14047 14.8847 2.0235 14.8897C1.92154 14.8846 1.82001 14.9062 1.72896 14.9523C1.63791 14.9985 1.5605 15.0677 1.5044 15.1529V14.9342H1.11876V16.7066H1.50809V15.7239C1.49967 15.6633 1.50478 15.6016 1.52306 15.5432C1.54134 15.4847 1.57233 15.4311 1.61381 15.3861C1.65529 15.341 1.70622 15.3058 1.76295 15.2828C1.81968 15.2598 1.8808 15.2496 1.94192 15.2531C2.19776 15.2531 2.32755 15.4199 2.32755 15.7202V16.7066H2.71688V15.7239C2.70909 15.6634 2.71465 15.6019 2.73316 15.5438C2.75168 15.4857 2.7827 15.4323 2.82404 15.3874C2.86538 15.3425 2.91605 15.3072 2.97249 15.284C3.02892 15.2608 3.08975 15.2503 3.1507 15.2531C3.41394 15.2531 3.54001 15.4199 3.54001 15.7202V16.7066H3.92934ZM9.69139 14.9342H9.06106V14.3965H8.67174V14.9342H8.31206V15.2864H8.67174V16.0948C8.67174 16.5063 8.83118 16.7511 9.28724 16.7511C9.45762 16.7516 9.62469 16.704 9.76926 16.6139L9.65804 16.2838C9.55463 16.3455 9.43726 16.38 9.31691 16.384C9.12409 16.384 9.06106 16.2653 9.06106 16.0874V15.2864H9.69139V14.9342ZM12.9803 14.8897C12.8863 14.8869 12.7933 14.9096 12.711 14.9552C12.6288 15.0009 12.5604 15.0679 12.5131 15.1492V14.9342H12.1312V16.7066H12.5168V15.7128C12.5168 15.4199 12.6429 15.2568 12.895 15.2568C12.9775 15.2556 13.0594 15.2708 13.136 15.3013L13.2547 14.9379C13.1666 14.9064 13.0738 14.8901 12.9803 14.8897V14.8897ZM8.00803 15.0751C7.78975 14.9453 7.53878 14.8809 7.28499 14.8897C6.83633 14.8897 6.54713 15.1047 6.54713 15.457C6.54713 15.7462 6.76217 15.9242 7.1589 15.9798L7.34059 16.0057C7.55193 16.0354 7.65206 16.091 7.65206 16.1911C7.65206 16.3283 7.51114 16.4062 7.2479 16.4062C7.03614 16.4123 6.82849 16.347 6.65834 16.2208L6.47667 16.5211C6.70128 16.678 6.97033 16.7586 7.24419 16.7511C7.75588 16.7511 8.05249 16.51 8.05249 16.1726C8.05249 15.8611 7.81892 15.698 7.4333 15.6424L7.25163 15.6164C7.08475 15.5942 6.95128 15.5608 6.95128 15.4422C6.95128 15.3124 7.07731 15.2345 7.28869 15.2345C7.48277 15.2374 7.67291 15.2898 7.84117 15.3865L8.00803 15.0751ZM18.3382 14.8897C18.2442 14.8869 18.1511 14.9096 18.0689 14.9552C17.9867 15.0009 17.9183 15.0679 17.871 15.1492V14.9342H17.4891V16.7066H17.8747V15.7128C17.8747 15.4199 18.0008 15.2568 18.2529 15.2568C18.3354 15.2556 18.4173 15.2708 18.4939 15.3013L18.6126 14.9379C18.5245 14.9064 18.4317 14.8901 18.3382 14.8897V14.8897ZM13.3696 15.8203C13.3645 15.9452 13.3856 16.0697 13.4315 16.186C13.4774 16.3022 13.5471 16.4075 13.6361 16.4952C13.7252 16.5829 13.8316 16.6509 13.9486 16.695C14.0655 16.7391 14.1904 16.7582 14.3151 16.7511C14.5467 16.7627 14.7741 16.6873 14.9529 16.5397L14.7675 16.2282C14.6342 16.3298 14.4716 16.3858 14.304 16.3877C14.1595 16.3789 14.0238 16.3153 13.9246 16.2099C13.8253 16.1044 13.7701 15.9651 13.7701 15.8204C13.7701 15.6756 13.8253 15.5363 13.9246 15.4308C14.0238 15.3254 14.1595 15.2618 14.304 15.2531C14.4716 15.255 14.6342 15.3109 14.7675 15.4125L14.9529 15.101C14.7741 14.9535 14.5467 14.8781 14.3151 14.8897C14.1904 14.8826 14.0655 14.9017 13.9486 14.9457C13.8317 14.9898 13.7252 15.0579 13.6362 15.1455C13.5471 15.2332 13.4774 15.3385 13.4315 15.4547C13.3856 15.5709 13.3645 15.6955 13.3696 15.8203V15.8203ZM16.9811 15.8203V14.9342H16.5955V15.1492C16.5297 15.0644 16.4445 14.9966 16.3471 14.9514C16.2497 14.9063 16.1428 14.8851 16.0356 14.8897C15.7966 14.9014 15.5714 15.0046 15.4064 15.1778C15.2414 15.3511 15.1494 15.5811 15.1494 15.8204C15.1494 16.0596 15.2414 16.2897 15.4064 16.4629C15.5714 16.6362 15.7966 16.7393 16.0356 16.7511C16.1429 16.7556 16.2497 16.7345 16.3471 16.6893C16.4445 16.6441 16.5297 16.5763 16.5955 16.4915V16.7066H16.9811V15.8203ZM15.5461 15.8203C15.5521 15.7157 15.5886 15.6152 15.651 15.5311C15.7135 15.447 15.7992 15.383 15.8975 15.347C15.9959 15.311 16.1027 15.3046 16.2047 15.3285C16.3067 15.3525 16.3994 15.4058 16.4715 15.4818C16.5435 15.5579 16.5918 15.6533 16.6102 15.7564C16.6287 15.8596 16.6165 15.9658 16.5753 16.0621C16.5341 16.1584 16.4656 16.2406 16.3783 16.2984C16.2909 16.3563 16.1886 16.3873 16.0838 16.3877C16.0104 16.3886 15.9375 16.3744 15.8699 16.3459C15.8022 16.3173 15.7412 16.2751 15.6907 16.2218C15.6402 16.1685 15.6013 16.1053 15.5764 16.0362C15.5515 15.9671 15.5412 15.8936 15.5461 15.8203V15.8203ZM10.8928 14.8897C10.6523 14.9023 10.4261 15.0076 10.2615 15.1835C10.097 15.3593 10.007 15.5921 10.0104 15.8329C10.0137 16.0736 10.1102 16.3038 10.2796 16.475C10.4489 16.6462 10.678 16.7451 10.9187 16.7511C11.1833 16.7603 11.442 16.6719 11.6455 16.5026L11.4563 16.2171C11.3099 16.3345 11.1286 16.3997 10.941 16.4025C10.8135 16.4132 10.6869 16.3739 10.588 16.2929C10.489 16.212 10.4255 16.0957 10.4107 15.9686H11.727C11.7308 15.9205 11.7344 15.8723 11.7344 15.8203C11.7308 15.2679 11.3896 14.8897 10.8928 14.8897V14.8897ZM10.8853 15.2345C11.0018 15.2322 11.1144 15.2762 11.1985 15.3569C11.2826 15.4375 11.3313 15.5482 11.334 15.6646H10.4144C10.4212 15.5456 10.4743 15.434 10.5623 15.3536C10.6503 15.2733 10.7662 15.2305 10.8853 15.2345V15.2345ZM20.5592 15.8203V14.2223H20.1736V15.1492C20.1078 15.0644 20.0226 14.9966 19.9252 14.9514C19.8278 14.9063 19.721 14.8851 19.6137 14.8897C19.3748 14.9014 19.1495 15.0046 18.9845 15.1778C18.8195 15.3511 18.7275 15.5811 18.7275 15.8204C18.7275 16.0596 18.8195 16.2897 18.9845 16.4629C19.1495 16.6362 19.3748 16.7394 19.6137 16.7511C19.721 16.7556 19.8278 16.7345 19.9252 16.6893C20.0226 16.6441 20.1078 16.5763 20.1736 16.4915V16.7066H20.5592V15.8203ZM21.202 16.4497C21.226 16.4495 21.2497 16.4542 21.2718 16.4635C21.293 16.4724 21.3124 16.4852 21.3288 16.5013C21.3451 16.5174 21.3581 16.5364 21.3672 16.5574C21.3764 16.579 21.3812 16.6023 21.3812 16.6258C21.3812 16.6493 21.3764 16.6725 21.3672 16.6941C21.3581 16.715 21.345 16.734 21.3288 16.75C21.3123 16.7661 21.293 16.779 21.2718 16.788C21.2497 16.7974 21.226 16.8022 21.202 16.802C21.1667 16.8024 21.1321 16.7923 21.1025 16.7731C21.0729 16.7539 21.0497 16.7265 21.0356 16.6941C21.0263 16.6725 21.0216 16.6493 21.0216 16.6258C21.0216 16.6023 21.0263 16.579 21.0356 16.5574C21.0446 16.5364 21.0576 16.5174 21.0738 16.5013C21.0902 16.4851 21.1097 16.4723 21.131 16.4635C21.1535 16.4542 21.1777 16.4495 21.202 16.4497V16.4497ZM21.202 16.7632C21.2203 16.7633 21.2384 16.7596 21.2552 16.7524C21.2713 16.7454 21.2859 16.7354 21.2983 16.723C21.3239 16.6972 21.3383 16.6622 21.3383 16.6258C21.3383 16.5895 21.3239 16.5545 21.2983 16.5287C21.2859 16.5163 21.2713 16.5064 21.2552 16.4996C21.2384 16.4924 21.2203 16.4888 21.202 16.489C21.1834 16.4888 21.165 16.4924 21.1478 16.4996C21.1315 16.5063 21.1166 16.5162 21.104 16.5287C21.0784 16.5545 21.064 16.5895 21.064 16.6258C21.064 16.6622 21.0784 16.6972 21.104 16.723C21.1166 16.7355 21.1315 16.7455 21.1478 16.7524C21.165 16.7596 21.1834 16.7633 21.202 16.7632V16.7632ZM21.2124 16.5434C21.2297 16.5422 21.2469 16.5472 21.261 16.5574C21.2666 16.562 21.271 16.5679 21.274 16.5745C21.277 16.5812 21.2783 16.5884 21.278 16.5956C21.2782 16.6019 21.2771 16.608 21.2748 16.6138C21.2724 16.6196 21.2689 16.6248 21.2644 16.6291C21.2537 16.6386 21.2401 16.6443 21.2258 16.6453L21.2793 16.707H21.2375L21.1878 16.6457H21.1718V16.707H21.1368V16.5434H21.2124ZM21.1718 16.5741V16.6177H21.212C21.2197 16.6181 21.2274 16.6162 21.234 16.6122C21.2367 16.6104 21.2389 16.608 21.2403 16.605C21.2418 16.6021 21.2424 16.5989 21.2422 16.5956C21.2424 16.5925 21.2417 16.5893 21.2403 16.5864C21.2388 16.5836 21.2367 16.5812 21.234 16.5794C21.2273 16.5755 21.2197 16.5737 21.212 16.5741H21.1718ZM19.1243 15.8203C19.1303 15.7157 19.1667 15.6152 19.2292 15.5311C19.2916 15.447 19.3773 15.383 19.4757 15.347C19.5741 15.311 19.6808 15.3046 19.7828 15.3286C19.8848 15.3526 19.9775 15.4058 20.0496 15.4819C20.1216 15.5579 20.1698 15.6534 20.1883 15.7565C20.2067 15.8596 20.1946 15.9659 20.1534 16.0622C20.1122 16.1585 20.0437 16.2406 19.9563 16.2984C19.869 16.3563 19.7666 16.3873 19.6619 16.3877C19.5885 16.3886 19.5156 16.3744 19.448 16.3459C19.3803 16.3173 19.3193 16.275 19.2688 16.2217C19.2183 16.1684 19.1794 16.1053 19.1545 16.0362C19.1296 15.9671 19.1193 15.8936 19.1243 15.8203V15.8203ZM6.10217 15.8203V14.9342H5.71654V15.1492C5.65071 15.0644 5.56554 14.9966 5.46813 14.9514C5.37072 14.9063 5.26391 14.8851 5.15664 14.8897C4.9177 14.9014 4.69242 15.0046 4.52745 15.1778C4.36249 15.3511 4.27047 15.5811 4.27047 15.8204C4.27047 16.0596 4.36249 16.2897 4.52745 16.4629C4.69242 16.6362 4.9177 16.7393 5.15664 16.7511C5.26392 16.7556 5.37072 16.7345 5.46813 16.6893C5.56554 16.6441 5.65072 16.5763 5.71654 16.4915V16.7066H6.10217V15.8203ZM4.66723 15.8203C4.67322 15.7157 4.70969 15.6152 4.77213 15.5311C4.83458 15.447 4.92028 15.383 5.01865 15.347C5.11703 15.311 5.22379 15.3046 5.32577 15.3286C5.42774 15.3526 5.52047 15.4058 5.59253 15.4819C5.66458 15.5579 5.71281 15.6534 5.73126 15.7565C5.74971 15.8596 5.73757 15.9659 5.69636 16.0622C5.65514 16.1585 5.58664 16.2406 5.4993 16.2984C5.41196 16.3563 5.30961 16.3873 5.20485 16.3877C5.13143 16.3886 5.0586 16.3744 4.99094 16.3459C4.92329 16.3173 4.86229 16.275 4.81178 16.2217C4.76127 16.1684 4.72235 16.1053 4.69747 16.0362C4.6726 15.9671 4.6623 15.8936 4.66723 15.8203V15.8203Z" fill="var(--fill-0, #231F20)"/>
<g id="Symbol">
<path id="Vector" d="M13.7206 1.42688H7.87984V11.9228H13.7206V1.42688Z" fill="var(--fill-0, #FF5F00)"/>
<path id="Vector_2" d="M8.25063 6.67521C8.24971 5.66437 8.47878 4.66658 8.92048 3.75736C9.36219 2.84814 10.005 2.05132 10.8001 1.42724C9.81542 0.653229 8.63281 0.171885 7.38746 0.0382205C6.14211 -0.0954435 4.88429 0.123967 3.75775 0.671374C2.6312 1.21878 1.6814 2.07209 1.01689 3.13379C0.352391 4.19548 0 5.42271 0 6.67521C0 7.9277 0.352391 9.15494 1.01689 10.2166C1.6814 11.2783 2.6312 12.1316 3.75775 12.679C4.88429 13.2264 6.14211 13.4459 7.38746 13.3122C8.63281 13.1785 9.81542 12.6972 10.8001 11.9232C10.005 11.2991 9.36219 10.5023 8.92049 9.59306C8.47878 8.68384 8.24972 7.68604 8.25063 6.67521V6.67521Z" fill="var(--fill-0, #EB001B)"/>
<path id="Vector_3" d="M21.6 6.67523C21.6 7.9277 21.2477 9.15493 20.5832 10.2166C19.9188 11.2783 18.969 12.1316 17.8425 12.679C16.7159 13.2265 15.4581 13.4459 14.2128 13.3122C12.9675 13.1785 11.7849 12.6972 10.8002 11.9232C11.5947 11.2985 12.2369 10.5015 12.6786 9.59246C13.1202 8.68338 13.3497 7.6859 13.3497 6.67523C13.3497 5.66455 13.1202 4.66707 12.6786 3.758C12.2369 2.84892 11.5947 2.05197 10.8002 1.42726C11.7849 0.65325 12.9675 0.171906 14.2128 0.0382437C15.4581 -0.0954186 16.7159 0.123996 17.8425 0.671408C18.969 1.21882 19.9188 2.07214 20.5832 3.13383C21.2477 4.19552 21.6 5.42275 21.6 6.67523V6.67523Z" fill="var(--fill-0, #F79E1B)"/>
<path id="Vector_4" d="M20.9632 10.8114V10.5965H21.0498V10.5527H20.8291V10.5965H20.9158V10.8114H20.9632ZM21.3916 10.8114V10.5523H21.3239L21.2461 10.7305L21.1683 10.5523H21.1006V10.8114H21.1484V10.616L21.2214 10.7845H21.2709L21.3439 10.6155V10.8114H21.3916Z" fill="var(--fill-0, #F79E1B)"/>
</g>
</g>
</svg>
