<svg preserveAspectRatio="none" width="100%" height="100%" overflow="visible" style="display: block;" viewBox="0 0 56.6574 30" fill="none" xmlns="http://www.w3.org/2000/svg">
<g id="Overlay+Border">
<rect x="0.375" y="0.375" width="55.9074" height="29.25" rx="9.625" fill="var(--fill-0, white)"/>
<rect x="0.375" y="0.375" width="55.9074" height="29.25" rx="9.625" stroke="var(--stroke-0, #212430)" stroke-width="0.75"/>
<path id="Text" d="M28.1479 9.21196L25.6655 20.8178H22.6628L25.1455 9.21196H28.1479ZM40.7799 16.706L42.3602 12.3478L43.2696 16.706H40.7799ZM44.1311 20.8178H46.9074L44.4819 9.21196H41.9209C41.3437 9.21196 40.8572 9.54661 40.6418 10.0627L36.1366 20.8178H39.2899L39.9159 19.0845H43.7674L44.1311 20.8178ZM36.293 17.0289C36.306 13.9659 32.0588 13.7962 32.0872 12.4276C32.0963 12.0118 32.4931 11.5688 33.3603 11.4555C33.7902 11.4002 34.9766 11.3553 36.3214 11.975L36.8474 9.51293C36.1251 9.25164 35.1956 9 34.039 9C31.0707 9 28.9827 10.5766 28.966 12.8362C28.947 14.507 30.4576 15.4387 31.5933 15.9952C32.7643 16.564 33.1567 16.9287 33.1509 17.4369C33.1428 18.2155 32.2172 18.5604 31.3553 18.5734C29.8449 18.5969 28.9694 18.1652 28.2717 17.8399L27.7266 20.3842C28.4293 20.7058 29.7241 20.9856 31.0647 21C34.2204 21 36.2836 19.4419 36.293 17.0289ZM23.8576 9.21196L18.9927 20.8178H15.8193L13.4251 11.5555C13.28 10.9859 13.1534 10.7766 12.7119 10.5359C11.9899 10.1439 10.798 9.7771 9.74999 9.54895L9.82099 9.21196H14.93C15.5807 9.21196 16.1662 9.64501 16.3153 10.3947L17.58 17.1111L20.7032 9.21196H23.8576Z" fill="var(--fill-0, #1434CB)"/>
</g>
</svg>
