<svg preserveAspectRatio="none" width="100%" height="100%" overflow="visible" style="display: block;" viewBox="0 0 82.0118 30" fill="none" xmlns="http://www.w3.org/2000/svg">
<g id="Overlay+Border">
<rect x="0.375" y="0.375" width="81.2618" height="29.25" rx="9.625" fill="var(--fill-0, white)"/>
<rect x="0.375" y="0.375" width="81.2618" height="29.25" rx="9.625" stroke="var(--stroke-0, #212430)" stroke-width="0.75"/>
<g id="Union">
<path d="M34.3047 19.9712C31.3412 19.9712 29.0391 17.7964 29.0391 14.9898C29.0391 12.2174 31.3981 10 34.3446 10C35.1873 10 35.8866 10.1708 36.7389 10.5832V12.7739C35.9319 12.0132 35.2271 11.7005 34.3047 11.7005C32.4766 11.7005 31.0446 13.1486 31.0446 14.9765C31.0446 16.9111 32.4317 18.267 34.3899 18.267C35.2752 18.267 35.9594 17.9713 36.7389 17.2217V19.415C35.8568 19.8133 35.1404 19.9712 34.3047 19.9712Z" fill="var(--fill-0, #E6772F)"/>
<path d="M25.5555 13.8734C24.3856 13.4628 24.0437 13.1894 24.0437 12.6735C24.0437 12.074 24.6548 11.6193 25.4951 11.6193C26.0775 11.6193 26.5573 11.8424 27.0684 12.3875L28.0803 11.1172C27.2442 10.4132 26.2436 10.0567 25.1527 10.0567C23.3877 10.0567 22.0425 11.2317 22.0425 12.7855C22.0425 14.1046 22.6678 14.7738 24.4929 15.4093C25.2558 15.6632 25.6434 15.8366 25.8397 15.954C26.2285 16.1945 26.4221 16.5391 26.4221 16.9375C26.4221 17.7138 25.7793 18.2844 24.9103 18.2844C23.9852 18.2844 23.2367 17.8413 22.7887 17.009L21.5348 18.171C22.4312 19.428 23.5058 19.9897 24.9862 19.9897C27.0053 19.9897 28.428 18.6961 28.428 16.8537C28.428 15.3356 27.7682 14.6475 25.5555 13.8734Z" fill="var(--fill-0, #E6772F)"/>
<path fill-rule="evenodd" clip-rule="evenodd" d="M9.75 10.2156H12.6082C15.7611 10.2156 17.9606 12.1725 17.9606 14.9898C17.9606 16.3971 17.2864 17.7556 16.1503 18.6553C15.1938 19.4149 14.1026 19.7591 12.5908 19.7591H9.75V10.2156ZM12.2182 18.1421C13.4772 18.1421 14.2644 17.9109 14.8828 17.3821C15.5524 16.8125 15.9547 15.8962 15.9547 14.9765C15.9547 14.0612 15.5524 13.1763 14.8828 12.6027C14.2342 12.0476 13.4772 11.832 12.2182 11.832H11.6959V18.1421H12.2182Z" fill="var(--fill-0, #E6772F)"/>
<path d="M20.7959 10.2156H18.8578V19.7591H20.7959V10.2156Z" fill="var(--fill-0, #E6772F)"/>
<path d="M52.4964 16.6228L49.8368 10.2156H47.7163L51.9442 20H52.987L57.297 10.2156H55.1931L52.4964 16.6228Z" fill="var(--fill-0, #E6772F)"/>
<path d="M63.6949 19.7591H58.1795V10.2156H63.6949V11.8319H60.1254V13.9493H63.5594V15.566H60.1254V18.1421H63.6949V19.7591Z" fill="var(--fill-0, #E6772F)"/>
<path fill-rule="evenodd" clip-rule="evenodd" d="M71.3944 13.0314C71.3944 11.2442 70.1134 10.2156 67.8678 10.2156H64.979V19.7591H66.9291V15.9221H67.182L69.869 19.7591H72.2618L69.124 15.7368C70.5905 15.45 71.3944 14.4918 71.3944 13.0314ZM67.4937 14.6041H66.9291V11.7175H67.5255C68.7406 11.7175 69.3916 12.2056 69.3916 13.1353C69.3916 14.0905 68.7406 14.6041 67.4937 14.6041Z" fill="var(--fill-0, #E6772F)"/>
<path d="M42.7914 19.9866C45.664 19.9866 47.9905 17.7596 47.9905 15.012C47.9905 12.264 45.664 10.0366 42.7914 10.0366C39.9197 10.0366 37.5928 12.264 37.5928 15.012C37.5928 17.7596 39.9197 19.9866 42.7914 19.9866Z" fill="var(--fill-0, #E6772F)"/>
</g>
</g>
</svg>
