<svg preserveAspectRatio="none" width="100%" height="100%" overflow="visible" style="display: block;" viewBox="0 0 56.0324 30" fill="none" xmlns="http://www.w3.org/2000/svg">
<g id="Overlay+Border">
<rect x="0.375" y="0.375" width="55.2824" height="29.25" rx="9.625" fill="var(--fill-0, white)"/>
<rect x="0.375" y="0.375" width="55.2824" height="29.25" rx="9.625" stroke="var(--stroke-0, #212430)" stroke-width="0.75"/>
<path id="Vector" d="M16.4252 9.43387C15.997 9.94053 15.3119 10.3402 14.6269 10.2831C14.5412 9.598 14.8766 8.87012 15.2691 8.42055C15.6973 7.89962 16.4466 7.52854 17.0531 7.5C17.1245 8.21361 16.8462 8.91294 16.4252 9.43387ZM17.046 10.4186C16.0541 10.3616 15.2049 10.9824 14.7339 10.9824C14.2558 10.9824 13.5351 10.4472 12.7501 10.4615C11.7296 10.4757 10.7805 11.0538 10.2596 11.9743C9.1892 13.8154 9.9813 16.5414 11.016 18.04C11.5227 18.7821 12.1293 19.5956 12.9285 19.5671C13.6849 19.5385 13.9846 19.0747 14.8981 19.0747C15.8186 19.0747 16.0826 19.5671 16.8819 19.5528C17.7097 19.5385 18.2306 18.8107 18.7373 18.0685C19.3153 17.2265 19.5508 16.4058 19.565 16.363C19.5508 16.3487 17.9666 15.7422 17.9523 13.9153C17.938 12.3882 19.2011 11.6603 19.2582 11.6175C18.5446 10.5614 17.4314 10.4472 17.046 10.4186ZM22.7763 8.34919V19.4743H24.5032V15.6708H26.8938C29.0774 15.6708 30.6117 14.1722 30.6117 12.0029C30.6117 9.83349 29.1059 8.34919 26.9509 8.34919H22.7763ZM24.5032 9.80495H26.4941C27.9927 9.80495 28.849 10.6042 28.849 12.01C28.849 13.4158 27.9927 14.2222 26.487 14.2222H24.5032V9.80495ZM33.7658 19.5599C34.8505 19.5599 35.8567 19.0105 36.3134 18.1399H36.349V19.4743H37.9475V13.9367C37.9475 12.3311 36.663 11.2964 34.6863 11.2964C32.8524 11.2964 31.4965 12.3454 31.4466 13.7869H33.0022C33.1307 13.1018 33.7658 12.6522 34.6364 12.6522C35.6925 12.6522 36.2848 13.1446 36.2848 14.0509V14.6646L34.1297 14.7931C32.1245 14.9144 31.0398 15.735 31.0398 17.1622C31.0398 18.6037 32.1602 19.5599 33.7658 19.5599ZM34.2296 18.2398C33.3091 18.2398 32.7239 17.7973 32.7239 17.1194C32.7239 16.4201 33.2877 16.0133 34.3652 15.9491L36.2848 15.8278V16.4558C36.2848 17.4976 35.4 18.2398 34.2296 18.2398ZM40.0812 22.5C41.7653 22.5 42.5574 21.8578 43.2496 19.9096L46.2824 11.4034H44.527L42.4932 17.9757H42.4575L40.4237 11.4034H38.6183L41.5441 19.5029L41.3871 19.9952C41.1231 20.8302 40.6949 21.1513 39.9314 21.1513C39.7958 21.1513 39.5317 21.137 39.4247 21.1227V22.4572C39.5246 22.4857 39.9528 22.5 40.0812 22.5Z" fill="var(--fill-0, black)"/>
</g>
</svg>
