<svg preserveAspectRatio="none" width="100%" height="100%" overflow="visible" style="display: block;" viewBox="0 0 27.251 27" fill="none" xmlns="http://www.w3.org/2000/svg">
<g id="Frame 2118387566">
<path id="Vector" fill-rule="evenodd" clip-rule="evenodd" d="M13.751 26.625C15.5238 26.625 17.2793 26.2855 18.9172 25.6259C20.5551 24.9663 22.0433 23.9995 23.2969 22.7808C24.5505 21.562 25.5449 20.1151 26.2234 18.5227C26.9018 16.9303 27.251 15.2236 27.251 13.5C27.251 11.7764 26.9018 10.0697 26.2234 8.47728C25.5449 6.88488 24.5505 5.43799 23.2969 4.21922C22.0433 3.00045 20.5551 2.03367 18.9172 1.37408C17.2793 0.714488 15.5238 0.375 13.751 0.375C10.1706 0.375 6.73678 1.75781 4.20504 4.21922C1.67329 6.68064 0.250977 10.019 0.250977 13.5C0.250977 16.981 1.67329 20.3194 4.20504 22.7808C6.73678 25.2422 10.1706 26.625 13.751 26.625ZM13.403 18.8083L20.903 10.0583L18.599 8.19167L12.149 15.7152L8.81148 12.469L6.69048 14.531L11.1905 18.906L12.3515 20.0348L13.403 18.8083Z" fill="var(--fill-0, white)"/>
</g>
</svg>
