<svg preserveAspectRatio="none" width="100%" height="100%" overflow="visible" style="display: block;" viewBox="0 0 20 20" fill="none" xmlns="http://www.w3.org/2000/svg">
<g id="SVG">
<path id="Vector" d="M5 9.16667H8.33333" stroke="var(--stroke-0, white)" stroke-width="1.66667" stroke-linecap="round" stroke-linejoin="round"/>
<path id="Vector_2" d="M6.66667 7.5V10.8333" stroke="var(--stroke-0, white)" stroke-width="1.66667" stroke-linecap="round" stroke-linejoin="round"/>
<path id="Vector_3" d="M12.5 10H12.5083" stroke="var(--stroke-0, white)" stroke-width="1.66667" stroke-linecap="round" stroke-linejoin="round"/>
<path id="Vector_4" d="M15 8.33333H15.0083" stroke="var(--stroke-0, white)" stroke-width="1.66667" stroke-linecap="round" stroke-linejoin="round"/>
<path id="Vector_5" d="M14.4333 4.16667H5.56667C4.7419 4.16686 3.94649 4.47281 3.33419 5.02539C2.7219 5.57796 2.33621 6.33791 2.25167 7.15833C2.24667 7.20167 2.24333 7.2425 2.2375 7.285C2.17 7.84667 1.66667 12.0467 1.66667 13.3333C1.66667 13.9964 1.93006 14.6323 2.3989 15.1011C2.86774 15.5699 3.50363 15.8333 4.16667 15.8333C5 15.8333 5.41667 15.4167 5.83333 15L7.01167 13.8217C7.32415 13.5091 7.74801 13.3334 8.19 13.3333H11.81C12.252 13.3334 12.6758 13.5091 12.9883 13.8217L14.1667 15C14.5833 15.4167 15 15.8333 15.8333 15.8333C16.4964 15.8333 17.1323 15.5699 17.6011 15.1011C18.0699 14.6323 18.3333 13.9964 18.3333 13.3333C18.3333 12.0458 17.83 7.84667 17.7625 7.285C17.7567 7.24333 17.7533 7.20167 17.7483 7.15917C17.664 6.33859 17.2784 5.57844 16.6661 5.0257C16.0537 4.47295 15.2582 4.16688 14.4333 4.16667Z" stroke="var(--stroke-0, white)" stroke-width="1.66667" stroke-linecap="round" stroke-linejoin="round"/>
</g>
</svg>
